# xmcd
#
# Track frame offsets:
#	150
#	9072
#	19859
#	24890
#	34427
#	50519
#	61300
#	70139
#	81008
#	89375
#	101543
#	113931
#	120335
#
# Disc length: 1835 seconds
#
# Revision: 0
# Processed by: cddbd v1.5.1PL0 Copyright (c) Steve Scherf et al.
# Submitted via: audiograbber 1.83.01
#
DISCID=9707290d
DTITLE=Pine Hill Haints - Those Who Wander
DYEAR=2004
DGENRE=Country
TTITLE0=You Will Never See Morning
TTITLE1=Merry Widows Of Joe Cain
TTITLE2=My Heroes Have Always Been Wolves
TTITLE3=Don't Wait For Six Strong Men To Carry You To Church
TTITLE4=I Ride An Old Paint
TTITLE5=All My Rowdy Friends Are Dead
TTITLE6=Last Of The Natchez Shakers
TTITLE7=Where The Soul Of Man Never Dies
TTITLE8=Ol' Suzanah/Camptown Races
TTITLE9=I Never Will Be There
TTITLE10=If You Don't Keep Score You'll Never Lose
TTITLE11=Banshee's Wail
TTITLE12=Goodnight Irene
EXTD=
EXTT0=
EXTT1=
EXTT2=
EXTT3=
EXTT4=
EXTT5=
EXTT6=
EXTT7=
EXTT8=
EXTT9=
EXTT10=
EXTT11=
EXTT12=
PLAYORDER=
